<mxfile host="Electron" agent="Mozilla/5.0 (Macintosh; Intel Mac OS X 10_15_7) AppleWebKit/537.36 (KHTML, like Gecko) draw.io/28.0.6 Chrome/138.0.7204.100 Electron/37.2.3 Safari/537.36" version="28.0.6">
  <diagram name="Page-1" id="2G_8tOsmPd5n7ASB9hwD">
    <mxGraphModel dx="4965" dy="3005" grid="1" gridSize="10" guides="1" tooltips="1" connect="1" arrows="1" fold="1" page="0" pageScale="1" pageWidth="1200" pageHeight="1600" math="0" shadow="0">
      <root>
        <mxCell id="0" />
        <mxCell id="1" parent="0" />
        <mxCell id="Ft_PUwQaNa9xPdg2tMb1-70" value="" style="rounded=0;whiteSpace=wrap;html=1;fillColor=#f5f5f5;fontColor=#333333;strokeColor=#666666;container=0;" vertex="1" parent="1">
          <mxGeometry x="665.5828220858898" y="-430" width="534.4171779141104" height="840" as="geometry" />
        </mxCell>
        <mxCell id="Ft_PUwQaNa9xPdg2tMb1-58" value="" style="rounded=0;whiteSpace=wrap;html=1;fillColor=#f5f5f5;fontColor=#333333;strokeColor=#666666;container=0;" vertex="1" parent="1">
          <mxGeometry x="-1015.2453987730062" y="-430" width="1637.7300613496932" height="840" as="geometry" />
        </mxCell>
        <mxCell id="Ft_PUwQaNa9xPdg2tMb1-91" value="" style="group" vertex="1" connectable="0" parent="1">
          <mxGeometry x="-972.15" y="-240.07" width="1547.22" height="580.07" as="geometry" />
        </mxCell>
        <mxCell id="Ft_PUwQaNa9xPdg2tMb1-38" value="" style="whiteSpace=wrap;html=1;fillColor=light-dark(#E6E6E6,#C0C0C0);gradientColor=#FFFFFF;strokeWidth=0;rounded=1;container=0;" vertex="1" parent="Ft_PUwQaNa9xPdg2tMb1-91">
          <mxGeometry x="534.4158217270195" y="8.514414044152236" width="478.38835654596096" height="571.5555859558478" as="geometry" />
        </mxCell>
        <mxCell id="Ft_PUwQaNa9xPdg2tMb1-31" value="" style="whiteSpace=wrap;html=1;fillColor=light-dark(#FFA046,#CD7F32);gradientColor=#FFFFFF;strokeWidth=0;rounded=1;container=0;" vertex="1" parent="Ft_PUwQaNa9xPdg2tMb1-91">
          <mxGeometry width="478.38835654596096" height="571.5555859558478" as="geometry" />
        </mxCell>
        <mxCell id="Ft_PUwQaNa9xPdg2tMb1-43" value="" style="whiteSpace=wrap;html=1;fillColor=light-dark(#FFD700,#FFD700);gradientColor=#FFFFFF;strokeWidth=0;rounded=1;container=0;" vertex="1" parent="Ft_PUwQaNa9xPdg2tMb1-91">
          <mxGeometry x="1068.831643454039" y="8.514414044152236" width="478.38835654596096" height="571.5555859558478" as="geometry" />
        </mxCell>
        <mxCell id="Ft_PUwQaNa9xPdg2tMb1-62" value="" style="html=1;shadow=0;dashed=0;align=center;verticalAlign=middle;shape=mxgraph.arrows2.arrow;dy=0.6;dx=40;notch=0;fillColor=#666666;container=0;" vertex="1" parent="1">
          <mxGeometry x="-493.7576687116564" y="-48.18181818181819" width="68.95705521472392" height="61.09090909090909" as="geometry" />
        </mxCell>
        <mxCell id="Ft_PUwQaNa9xPdg2tMb1-63" value="" style="html=1;shadow=0;dashed=0;align=center;verticalAlign=middle;shape=mxgraph.arrows2.arrow;dy=0.6;dx=40;notch=0;fillColor=#666666;container=0;" vertex="1" parent="1">
          <mxGeometry x="36.349693251533836" y="-48.18181818181819" width="68.95705521472392" height="61.09090909090909" as="geometry" />
        </mxCell>
        <mxCell id="Ft_PUwQaNa9xPdg2tMb1-71" value="" style="rounded=0;whiteSpace=wrap;html=1;fillColor=#f5f5f5;fontColor=#333333;strokeColor=#666666;container=0;" vertex="1" parent="1">
          <mxGeometry x="-1602" y="-430" width="534.4171779141104" height="840" as="geometry" />
        </mxCell>
        <mxCell id="Ft_PUwQaNa9xPdg2tMb1-72" value="&lt;font style=&quot;font-size: 40px; color: rgb(0, 0, 0);&quot;&gt;&lt;b&gt;Data Source&lt;/b&gt;&lt;/font&gt;" style="text;html=1;align=center;verticalAlign=middle;whiteSpace=wrap;rounded=0;container=0;" vertex="1" parent="1">
          <mxGeometry x="-1532.4233128834355" y="-407.09090909090907" width="379.2638036809816" height="108.64947145877379" as="geometry" />
        </mxCell>
        <mxCell id="Ft_PUwQaNa9xPdg2tMb1-73" value="&lt;font style=&quot;font-size: 40px; color: rgb(0, 0, 0);&quot;&gt;&lt;b&gt;Medallion Data Warehouse Architecture&lt;/b&gt;&lt;/font&gt;" style="text;html=1;align=center;verticalAlign=middle;whiteSpace=wrap;rounded=0;container=0;" vertex="1" parent="1">
          <mxGeometry x="-515.3067484662577" y="-399.45454545454544" width="689.5705521472393" height="108.65018181818182" as="geometry" />
        </mxCell>
        <mxCell id="Ft_PUwQaNa9xPdg2tMb1-74" value="&lt;font style=&quot;font-size: 40px; color: rgb(0, 0, 0);&quot;&gt;&lt;b&gt;Analysis&lt;/b&gt;&lt;/font&gt;" style="text;html=1;align=center;verticalAlign=middle;whiteSpace=wrap;rounded=0;container=0;" vertex="1" parent="1">
          <mxGeometry x="743.159509202454" y="-407.09090909090907" width="379.2638036809816" height="108.64947145877379" as="geometry" />
        </mxCell>
        <mxCell id="Ft_PUwQaNa9xPdg2tMb1-76" value="" style="shape=image;verticalLabelPosition=bottom;labelBackgroundColor=default;verticalAlign=top;aspect=fixed;imageAspect=0;editableCssRules=.*;image=data:image/svg+xml,PHN2ZyB4bWxuczp4bGluaz0iaHR0cDovL3d3dy53My5vcmcvMTk5OS94bGluayIgeG1sbnM9Imh0dHA6Ly93d3cudzMub3JnLzIwMDAvc3ZnIiB4bWw6c3BhY2U9InByZXNlcnZlIiB2aWV3Qm94PSI2LjUgMCA0NS4wMDAwMDM4MTQ2OTcyNjYgNTgiIGlkPSJDYXBhXzEiIHZlcnNpb249IjEuMSIgZmlsbD0iIzAwMDAwMCIgd2lkdGg9IjQ1LjAwMDAwMzgxNDY5NzI2NiIgaGVpZ2h0PSI1OCI+JiN4YTs8Zz4mI3hhOwk8cmVjdCBoZWlnaHQ9IjIiIHdpZHRoPSI4IiB5PSIxOSIgeD0iMTQuNSIvPiYjeGE7CTxyZWN0IGhlaWdodD0iMiIgd2lkdGg9IjgiIHk9IjI3IiB4PSIxNC41Ii8+JiN4YTsJPHJlY3QgaGVpZ2h0PSIyIiB3aWR0aD0iOCIgeT0iMjMiIHg9IjE0LjUiLz4mI3hhOwk8cmVjdCBoZWlnaHQ9IjIiIHdpZHRoPSI4IiB5PSIxNSIgeD0iMTQuNSIvPiYjeGE7CTxyZWN0IGhlaWdodD0iMiIgd2lkdGg9IjE5IiB5PSIxOSIgeD0iMjQuNSIvPiYjeGE7CTxyZWN0IGhlaWdodD0iMiIgd2lkdGg9IjE5IiB5PSIyNyIgeD0iMjQuNSIvPiYjeGE7CTxyZWN0IGhlaWdodD0iMiIgd2lkdGg9IjE5IiB5PSIyMyIgeD0iMjQuNSIvPiYjeGE7CTxyZWN0IGhlaWdodD0iMiIgd2lkdGg9IjgiIHk9IjMxIiB4PSIxNC41Ii8+JiN4YTsJPHBhdGggZD0iTTUxLjUsMzlWMTMuOTc4YzAtMC43NjYtMC4wOTItMS4zMzMtMC41NS0xLjc5MkwzOS4zMTMsMC41NUMzOC45NjQsMC4yMDEsMzguNDgsMCwzNy45ODUsMEg4Ljk2MyYjMTA7JiM5OyYjOTtDNy43NzcsMCw2LjUsMC45MTYsNi41LDIuOTI2VjM5SDUxLjV6IE0zNy41LDMuMzkxYzAtMC40NTgsMC41NTMtMC42ODcsMC44NzctMC4zNjNsMTAuMDk1LDEwLjA5NSYjMTA7JiM5OyYjOTtDNDguNzk2LDEzLjQ0Nyw0OC41NjcsMTQsNDguMTA5LDE0SDM3LjVWMy4zOTF6IE0xMi41LDMxdi0ydi0ydi0ydi0ydi0ydi0ydi0ydi00aDEydjRoMjF2NHYydjJ2MnYydjJ2NGgtMjFoLTJoLTEwVjMxeiIvPiYjeGE7CTxwYXRoIGQ9Ik02LjUsNDF2MTVjMCwxLjAwOSwxLjIyLDIsMi40NjMsMmg0MC4wNzRjMS4yNDMsMCwyLjQ2My0wLjk5MSwyLjQ2My0yVjQxSDYuNXogTTE3LjQ2LDUwLjY2NCYjMTA7JiM5OyYjOTtjMC4xMzIsMC40ODMsMC4zMTQsMC44NzcsMC41NDcsMS4xODNzMC40OTcsMC41MjgsMC43OTMsMC42N2MwLjI5NiwwLjE0MiwwLjYwOCwwLjIxMiwwLjkzNywwLjIxMnMwLjYzNi0wLjA2LDAuOTIzLTAuMTc4JiMxMDsmIzk7JiM5O3MwLjU0OS0wLjMxLDAuNzg2LTAuNTc0bDEuMTM1LDAuOTk4Yy0wLjM3NCwwLjM2NC0wLjc5OCwwLjYzOC0xLjI3MSwwLjgyYy0wLjQ3NCwwLjE4My0wLjk4NCwwLjI3My0xLjUzMSwwLjI3MyYjMTA7JiM5OyYjOTtjLTAuNjAyLDAtMS4xNTUtMC4xMDktMS42NjEtMC4zMjhzLTAuOTQ4LTAuNTQyLTEuMzI2LTAuOTcxYy0wLjM3OC0wLjQyOS0wLjY3NS0wLjk2Ni0wLjg4OS0xLjYxMyYjMTA7JiM5OyYjOTtjLTAuMjE0LTAuNjQ3LTAuMzIxLTEuMzk1LTAuMzIxLTIuMjQyczAuMTA3LTEuNTkzLDAuMzIxLTIuMjM1YzAuMjE0LTAuNjQzLDAuNTEtMS4xNzgsMC44ODktMS42MDYmIzEwOyYjOTsmIzk7YzAuMzc4LTAuNDI5LDAuODIyLTAuNzU0LDEuMzMzLTAuOTc4YzAuNTEtMC4yMjQsMS4wNjItMC4zMzUsMS42NTQtMC4zMzVjMC41NDcsMCwxLjA1NywwLjA5MSwxLjUzMSwwLjI3MyYjMTA7JiM5OyYjOTtjMC40NzQsMC4xODMsMC44OTcsMC40NTYsMS4yNzEsMC44MmwtMS4xMzUsMS4wMTJjLTAuMjI4LTAuMjY1LTAuNDgxLTAuNDU2LTAuNzU5LTAuNTc0Yy0wLjI3OC0wLjExOC0wLjU2Ny0wLjE3OC0wLjg2OC0wLjE3OCYjMTA7JiM5OyYjOTtjLTAuMzM3LDAtMC42NTksMC4wNjMtMC45NjQsMC4xOTFjLTAuMzA2LDAuMTI4LTAuNTc5LDAuMzQ0LTAuODIsMC42NDljLTAuMjQyLDAuMzA2LTAuNDMxLDAuNjk5LTAuNTY3LDEuMTgzJiMxMDsmIzk7JiM5O3MtMC4yMSwxLjA3NS0wLjIxOSwxLjc3N0MxNy4yNTcsNDkuNTk4LDE3LjMyOCw1MC4xODEsMTcuNDYsNTAuNjY0eiBNMzAuNDA3LDUyLjI5OGMtMC4xNSwwLjM0Mi0wLjM2MiwwLjY0My0wLjYzNiwwLjkwMiYjMTA7JiM5OyYjOTtzLTAuNjExLDAuNDY3LTEuMDEyLDAuNjIyYy0wLjQwMSwwLjE1NS0wLjg1NywwLjIzMi0xLjM2NywwLjIzMmMtMC4yMTksMC0wLjQ0NC0wLjAxMi0wLjY3Ny0wLjAzNHMtMC40NjctMC4wNjItMC43MDQtMC4xMTYmIzEwOyYjOTsmIzk7Yy0wLjIzNy0wLjA1NS0wLjQ2My0wLjEzLTAuNjc3LTAuMjI2Yy0wLjIxNC0wLjA5Ni0wLjM5OS0wLjIxMi0wLjU1NC0wLjM0OWwwLjI4Ny0xLjE3NmMwLjEyNywwLjA3MywwLjI4OSwwLjE0NCwwLjQ4NSwwLjIxMiYjMTA7JiM5OyYjOTtjMC4xOTYsMC4wNjgsMC4zOTgsMC4xMzIsMC42MDgsMC4xOTFjMC4yMDksMC4wNiwwLjQxOSwwLjEwNywwLjYyOSwwLjE0NGMwLjIwOSwwLjAzNiwwLjQwNSwwLjA1NSwwLjU4OCwwLjA1NSYjMTA7JiM5OyYjOTtjMC41NTYsMCwwLjk4Mi0wLjEzLDEuMjc4LTAuMzljMC4yOTYtMC4yNiwwLjQ0NC0wLjY0NSwwLjQ0NC0xLjE1NWMwLTAuMzEtMC4xMDUtMC41NzQtMC4zMTQtMC43OTMmIzEwOyYjOTsmIzk7Yy0wLjIxLTAuMjE5LTAuNDcyLTAuNDE3LTAuNzg2LTAuNTk1cy0wLjY1NC0wLjM1NS0xLjAxOS0wLjUzM2MtMC4zNjUtMC4xNzgtMC43MDctMC4zODgtMS4wMjUtMC42MjkmIzEwOyYjOTsmIzk7Yy0wLjMxOS0wLjI0MS0wLjU4My0wLjUyNi0wLjc5My0wLjg1NGMtMC4yMS0wLjMyOC0wLjMxNC0wLjczOC0wLjMxNC0xLjIzYzAtMC40NDYsMC4wODItMC44NDMsMC4yNDYtMS4xODkmIzEwOyYjOTsmIzk7czAuMzg1LTAuNjQxLDAuNjYzLTAuODgyYzAuMjc4LTAuMjQxLDAuNjAyLTAuNDI2LDAuOTcxLTAuNTU0czAuNzU5LTAuMTkxLDEuMTY5LTAuMTkxYzAuNDE5LDAsMC44NDMsMC4wMzksMS4yNzEsMC4xMTYmIzEwOyYjOTsmIzk7YzAuNDI4LDAuMDc3LDAuNzc0LDAuMjAzLDEuMDM5LDAuMzc2Yy0wLjA1NSwwLjExOC0wLjExOSwwLjI0OC0wLjE5MSwwLjM5Yy0wLjA3MywwLjE0Mi0wLjE0MiwwLjI3My0wLjIwNSwwLjM5NiYjMTA7JiM5OyYjOTtjLTAuMDY0LDAuMTIzLTAuMTE5LDAuMjI2LTAuMTY0LDAuMzA4Yy0wLjA0NiwwLjA4Mi0wLjA3MywwLjEyOC0wLjA4MiwwLjEzN2MtMC4wNTUtMC4wMjctMC4xMTYtMC4wNjMtMC4xODUtMC4xMDkmIzEwOyYjOTsmIzk7cy0wLjE2Ny0wLjA5MS0wLjI5NC0wLjEzN2MtMC4xMjgtMC4wNDYtMC4yOTYtMC4wNzctMC41MDYtMC4wOTZjLTAuMjEtMC4wMTktMC40NzktMC4wMTQtMC44MDcsMC4wMTQmIzEwOyYjOTsmIzk7Yy0wLjE4MywwLjAxOS0wLjM1NSwwLjA3LTAuNTIsMC4xNTdzLTAuMzEsMC4xOTMtMC40MzgsMC4zMjFjLTAuMTI4LDAuMTI4LTAuMjI4LDAuMjcxLTAuMzAxLDAuNDMxJiMxMDsmIzk7JiM5O2MtMC4wNzMsMC4xNTktMC4xMDksMC4zMTMtMC4xMDksMC40NThjMCwwLjM2NCwwLjEwNCwwLjY1OCwwLjMxNCwwLjg4MmMwLjIwOSwwLjIyNCwwLjQ2OSwwLjQxOSwwLjc3OSwwLjU4OCYjMTA7JiM5OyYjOTtjMC4zMSwwLjE2OSwwLjY0NywwLjMzMywxLjAxMiwwLjQ5MmMwLjM2NCwwLjE1OSwwLjcwNCwwLjM1NCwxLjAxOSwwLjU4MXMwLjU3NiwwLjUxMywwLjc4NiwwLjg1NCYjMTA7JiM5OyYjOTtjMC4yMDksMC4zNDIsMC4zMTQsMC43ODEsMC4zMTQsMS4zMTlDMzAuNjMzLDUxLjYwMywzMC41NTgsNTEuOTU2LDMwLjQwNyw1Mi4yOTh6IE0zNy4xNjgsNTQuMDU1aC0yLjEzM2wtMy4xMzEtMTAuMTMxaDEuODczJiMxMDsmIzk7JiM5O2wyLjMzOCw4LjY5NWwyLjQ3NS04LjY5NWgxLjg1OUwzNy4xNjgsNTQuMDU1eiIvPiYjeGE7CTxyZWN0IGhlaWdodD0iMiIgd2lkdGg9IjE5IiB5PSIzMSIgeD0iMjQuNSIvPiYjeGE7PC9nPiYjeGE7PC9zdmc+;container=0;" vertex="1" parent="1">
          <mxGeometry x="-1429.7376380368098" y="-147.45454545454544" width="154.04836363636363" height="198.54545454545456" as="geometry" />
        </mxCell>
        <mxCell id="Ft_PUwQaNa9xPdg2tMb1-78" value="&lt;h1 style=&quot;margin-top: 0px;&quot;&gt;&lt;ul&gt;&lt;li&gt;&lt;span style=&quot;background-color: transparent;&quot;&gt;&lt;font style=&quot;font-size: 20px; color: rgb(0, 0, 0);&quot;&gt;Type:&lt;span style=&quot;font-weight: normal;&quot;&gt;&amp;nbsp;CSV files&lt;/span&gt;&lt;/font&gt;&lt;/span&gt;&lt;/li&gt;&lt;li&gt;&lt;span style=&quot;font-weight: normal;&quot;&gt;&lt;font style=&quot;color: rgb(0, 0, 0);&quot;&gt;Batch Processing&lt;/font&gt;&lt;/span&gt;&lt;/li&gt;&lt;/ul&gt;&lt;/h1&gt;&lt;p class=&quot;p1&quot;&gt;&lt;span style=&quot;background-color: transparent;&quot;&gt;&lt;font style=&quot;font-size: 25px; color: rgb(0, 0, 0);&quot;&gt;&lt;br&gt;&lt;/font&gt;&lt;/span&gt;&lt;/p&gt;&lt;div&gt;&lt;br&gt;&lt;/div&gt;" style="text;html=1;whiteSpace=wrap;overflow=hidden;rounded=0;container=0;" vertex="1" parent="1">
          <mxGeometry x="-1532.4233128834355" y="81.63636363636368" width="439.60122699386505" height="285.9196617336152" as="geometry" />
        </mxCell>
        <mxCell id="Ft_PUwQaNa9xPdg2tMb1-80" value="" style="shape=image;aspect=fixed;image=data:image/svg+xml,PHN2ZyB4bWxucz0iaHR0cDovL3d3dy53My5vcmcvMjAwMC9zdmciICB2aWV3Qm94PSIwIDAgNDggNDgiIHdpZHRoPSI0OHB4IiBoZWlnaHQ9IjQ4cHgiPjxyZWN0IHdpZHRoPSIxLjUiIGhlaWdodD0iOSIgeD0iMjIuNzUiIHk9IjEiIGZpbGw9IiM3ODkwOWMiLz48cmVjdCB3aWR0aD0iOSIgaGVpZ2h0PSIxLjUiIHg9IjE5IiB5PSI0Ljc1IiBmaWxsPSIjNzg5MDljIi8+PHJlY3Qgd2lkdGg9IjEuNSIgaGVpZ2h0PSI5IiB4PSI0MC43NSIgeT0iMTkiIGZpbGw9IiM1YzZiYzAiLz48cmVjdCB3aWR0aD0iOSIgaGVpZ2h0PSIxLjUiIHg9IjM3IiB5PSIyMi43NSIgZmlsbD0iIzVjNmJjMCIvPjxyZWN0IHdpZHRoPSIxLjUiIGhlaWdodD0iOSIgeD0iNC43NSIgeT0iMTkiIGZpbGw9IiM3ODkwOWMiLz48cmVjdCB3aWR0aD0iOSIgaGVpZ2h0PSIxLjUiIHg9IjEiIHk9IjIyLjc1IiBmaWxsPSIjNzg5MDljIi8+PHJlY3Qgd2lkdGg9IjEuNSIgaGVpZ2h0PSI5IiB4PSIyMi43NSIgeT0iMzciIGZpbGw9IiM1YzZiYzAiLz48cmVjdCB3aWR0aD0iOSIgaGVpZ2h0PSIxLjUiIHg9IjE5IiB5PSI0MC43NSIgZmlsbD0iIzVjNmJjMCIvPjxyZWN0IHdpZHRoPSIxNyIgaGVpZ2h0PSIzIiB4PSIxNSIgeT0iMjIiIGZpbGw9IiNlODc2MmQiLz48cmVjdCB3aWR0aD0iMyIgaGVpZ2h0PSIxNyIgeD0iMjIiIHk9IjE1IiBmaWxsPSIjZTg3NjJkIi8+PHJlY3Qgd2lkdGg9IjIiIGhlaWdodD0iMTQiIHg9IjExIiB5PSI2IiBmaWxsPSIjZmZhMDAwIi8+PHJlY3Qgd2lkdGg9IjE0IiBoZWlnaHQ9IjIiIHg9IjUiIHk9IjEyIiBmaWxsPSIjZmZhMDAwIi8+PHJlY3Qgd2lkdGg9IjIiIGhlaWdodD0iMTQiIHg9IjM0IiB5PSI2IiBmaWxsPSIjNjA3ZDhiIi8+PHJlY3Qgd2lkdGg9IjE0IiBoZWlnaHQ9IjIiIHg9IjI4IiB5PSIxMiIgZmlsbD0iIzYwN2Q4YiIvPjxyZWN0IHdpZHRoPSIyIiBoZWlnaHQ9IjE0IiB4PSIxMSIgeT0iMjciIGZpbGw9IiNjNjI4MjgiLz48cmVjdCB3aWR0aD0iMTQiIGhlaWdodD0iMiIgeD0iNSIgeT0iMzMiIGZpbGw9IiNjNjI4MjgiLz48cmVjdCB3aWR0aD0iMiIgaGVpZ2h0PSIxNCIgeD0iMzQiIHk9IjI3IiBmaWxsPSIjMGQ0N2ExIi8+PHJlY3Qgd2lkdGg9IjE0IiBoZWlnaHQ9IjIiIHg9IjI4IiB5PSIzMyIgZmlsbD0iIzBkNDdhMSIvPjwvc3ZnPg==;container=0;" vertex="1" parent="1">
          <mxGeometry x="846.59509202454" y="-262" width="152.72727272727275" height="152.72727272727275" as="geometry" />
        </mxCell>
        <mxCell id="Ft_PUwQaNa9xPdg2tMb1-81" value="" style="html=1;shadow=0;dashed=0;align=center;verticalAlign=middle;shape=mxgraph.arrows2.arrow;dy=0.6;dx=40;notch=0;fillColor=#666666;container=0;" vertex="1" parent="1">
          <mxGeometry x="-1075.5828220858896" y="-40.545454545454504" width="68.95705521472392" height="61.09090909090909" as="geometry" />
        </mxCell>
        <mxCell id="Ft_PUwQaNa9xPdg2tMb1-84" value="" style="html=1;shadow=0;dashed=0;align=center;verticalAlign=middle;shape=mxgraph.arrows2.arrow;dy=0.6;dx=40;notch=0;fillColor=#666666;container=0;" vertex="1" parent="1">
          <mxGeometry x="616.1042944785277" y="-40.545454545454504" width="68.95705521472392" height="61.09090909090909" as="geometry" />
        </mxCell>
        <mxCell id="Ft_PUwQaNa9xPdg2tMb1-86" value="&lt;span style=&quot;font-size: 20px;&quot;&gt;&lt;b&gt;&lt;font style=&quot;color: rgb(0, 0, 0);&quot;&gt;Tableau Dashboard&lt;/font&gt;&lt;/b&gt;&lt;/span&gt;" style="text;html=1;whiteSpace=wrap;overflow=hidden;rounded=0;container=0;" vertex="1" parent="1">
          <mxGeometry x="846.6" y="-80.45" width="213.4" height="38.18" as="geometry" />
        </mxCell>
        <mxCell id="Ft_PUwQaNa9xPdg2tMb1-87" value="" style="shape=image;aspect=fixed;image=data:image/svg+xml,PD94bWwgdmVyc2lvbj0iMS4wIiBlbmNvZGluZz0idXRmLTgiPz48c3ZnIHZlcnNpb249IjEuMSIgaWQ9IkxheWVyXzEiIHhtbG5zPSJodHRwOi8vd3d3LnczLm9yZy8yMDAwL3N2ZyIgeG1sbnM6eGxpbms9Imh0dHA6Ly93d3cudzMub3JnLzE5OTkveGxpbmsiIHg9IjBweCIgeT0iMHB4IiB2aWV3Qm94PSIwIDAgMTEwLjY2IDEyMi44OCIgc3R5bGU9ImVuYWJsZS1iYWNrZ3JvdW5kOm5ldyAwIDAgMTEwLjY2IDEyMi44OCIgeG1sOnNwYWNlPSJwcmVzZXJ2ZSI+PHN0eWxlIHR5cGU9InRleHQvY3NzIj4uc3Qwe2ZpbGwtcnVsZTpldmVub2RkO2NsaXAtcnVsZTpldmVub2RkO308L3N0eWxlPjxnPjxwYXRoIGNsYXNzPSJzdDAiIGQ9Ik04MS44MSw3MC44MmM2LjI3LDAsMTEuOTUsMi41NSwxNi4wNyw2LjY1YzQuMTIsNC4xMiw2LjY1LDkuNzgsNi42NSwxNi4wN2MwLDQuNTgtMS4zNyw4Ljg2LTMuNywxMi40MyBsOS44MywxMC43MWwtNi43OCw2LjJsLTkuNDgtMTAuNDNjLTMuNiwyLjQtNy45MywzLjgtMTIuNTgsMy44Yy02LjI3LDAtMTEuOTUtMi41NS0xNi4wNi02LjY1Yy00LjEyLTQuMTItNi42NS05Ljc4LTYuNjUtMTYuMDYgYzAtNi4yNywyLjU1LTExLjk1LDYuNjUtMTYuMDdDNjkuODYsNzMuMzUsNzUuNTMsNzAuODIsODEuODEsNzAuODJMODEuODEsNzAuODJMODEuODEsNzAuODJ6IE01Ljc4LDQwLjg2TDUuNzgsNDAuODZsMCw0Ny4wOSBjMCwwLjI3LDAuMSwwLjUyLDAuMjcsMC42OWMwLjE3LDAuMTcsMC40MSwwLjI4LDAuNjksMC4yOGg0Mi41M2MyLjkzLDAuMywzLjAyLDUuMzcsMCw1LjgxSDIyLjA1djEwLjhjMCwwLjI4LDAuMSwwLjUyLDAuMjgsMC42OSBjMC4xNywwLjE3LDAuNDEsMC4yNywwLjY5LDAuMjdsMjYuMjYsMGMyLjEyLDAuMjQsMi44MSw1LjA2LDAsNS44MUgyMy4wNWMtMS44NiwwLTMuNTgtMC43Ni00Ljc4LTJjLTEuMjQtMS4yNC0yLTIuOTItMi00Ljc4IGwwLTEwLjhoLTkuNWMtMS44NiwwLTMuNTgtMC43Ni00Ljc4LTJjLTEuMjQtMS4yNC0yLTIuOTItMi00Ljc4VjYuNzhDMCw0LjkyLDAuNzYsMy4yLDIsMmMxLjI0LTEuMjQsMi45Mi0yLDQuNzgtMkg3OC4xIGMxLjg2LDAsMy41OCwwLjc2LDQuNzgsMS45OWMxLjI0LDEuMjQsMS45OSwyLjkzLDEuOTksNC43OHYxMC44bDAsMGwwLDBoOS41YzEuODYsMCwzLjU4LDAuNzYsNC43OCwxLjk5YzEuMjQsMS4yNCwyLDIuOTMsMiw0Ljc4IHYzNy4wM2MtMC4yLDIuMTItNS40MSwyLjE1LTUuODUsMFYyNC4zNmMwLTAuMjgtMC4xLTAuNTItMC4yNy0wLjY5Yy0wLjE3LTAuMTctMC40MS0wLjI4LTAuNjktMC4yOGgtOS41djM3Ljk5IGMtMC41MSwxLjkyLTQuODQsMi4yMS01LjgxLDBWNDAuODZoMEg1Ljc4TDUuNzgsNDAuODZ6IE01Ljc4LDM1LjUxTDUuNzgsMzUuNTFoNzMuMjVoMFY2Ljc4YzAtMC4yOC0wLjEtMC41Mi0wLjI4LTAuNjkgYy0wLjE3LTAuMTctMC40MS0wLjI4LTAuNjktMC4yOEg2Ljc0Yy0wLjI4LDAtMC41MiwwLjEtMC42OSwwLjI4QzUuODgsNi4yNiw1Ljc4LDYuNSw1Ljc4LDYuNzhWMzUuNTFMNS43OCwzNS41MXogTTM4Ljk2LDIxLjU0IGg0LjcyYzAuMjUsMCwwLjQyLDAuMTcsMC40MiwwLjQydjEwLjQ2YzAsMC4yNS0wLjE3LDAuNDItMC40MiwwLjQyaC00LjcyYy0wLjI1LDAtMC40Mi0wLjE3LTAuNDItMC40MlYyMS45NiBDMzguNTQsMjEuOCwzOC43MSwyMS41NCwzOC45NiwyMS41NEwzOC45NiwyMS41NEwzOC45NiwyMS41NEwzOC45NiwyMS41NHogTTYyLjIyLDIxLjU0aDQuNzJjMC4yNSwwLDAuNDIsMC4xNywwLjQyLDAuNDJ2MTAuNDYgYzAsMC4yNS0wLjE3LDAuNDItMC40MiwwLjQyaC00LjcyYy0wLjI1LDAtMC40Mi0wLjE3LTAuNDItMC40MlYyMS45NkM2MS44LDIxLjgsNjEuOTcsMjEuNTQsNjIuMjIsMjEuNTRMNjIuMjIsMjEuNTRMNjIuMjIsMjEuNTQgTDYyLjIyLDIxLjU0eiBNNTAuNTksMTIuNjloNC43MmMwLjI2LDAsMC40MiwwLjE3LDAuNDIsMC40MnYxOS4zOWMwLDAuMjUtMC4xNywwLjQyLTAuNDIsMC40MmgtNC43MmMtMC4yNSwwLTAuNDItMC4xNy0wLjQyLTAuNDIgVjEzLjExQzUwLjE3LDEyLjg2LDUwLjM0LDEyLjY5LDUwLjU5LDEyLjY5TDUwLjU5LDEyLjY5TDUwLjU5LDEyLjY5TDUwLjU5LDEyLjY5eiBNMTUuNzEsMTUuODloNC43MmMwLjI1LDAsMC40MiwwLjE3LDAuNDIsMC40MiB2MTYuMTljMCwwLjI1LTAuMTcsMC40Mi0wLjQyLDAuNDJoLTQuNzJjLTAuMjUsMC0wLjQyLTAuMTctMC40Mi0wLjQyVjE2LjMyQzE1LjIxLDE2LjA2LDE1LjQ2LDE1Ljg5LDE1LjcxLDE1Ljg5TDE1LjcxLDE1Ljg5IEwxNS43MSwxNS44OUwxNS43MSwxNS44OUwxNS43MSwxNS44OXogTTI3LjMzLDEyLjY5aDQuNzJjMC4yNSwwLDAuNDIsMC4xNywwLjQyLDAuNDJ2MTkuMzljMCwwLjI1LTAuMTcsMC40Mi0wLjQyLDAuNDJoLTQuNzIgYy0wLjI1LDAtMC40Mi0wLjE3LTAuNDItMC40MlYxMy4xMUMyNi45MSwxMi44NiwyNy4wOCwxMi42OSwyNy4zMywxMi42OUwyNy4zMywxMi42OUwyNy4zMywxMi42OUwyNy4zMywxMi42OXogTTQyLjY5LDY3LjE4IGwxMy4xNSwwLjIzYzAsNC43Mi0yLjMyLDkuMDUtNi4xOSwxMS42OEw0Mi42OSw2Ny4xOEw0Mi42OSw2Ny4xOEw0Mi42OSw2Ny4xOEw0Mi42OSw2Ny4xOHogTTQxLjk3LDYzLjE2bC0wLjE1LTE1LjMydi0xLjAxIGwxLjAxLDAuMDhsMCwwbDAsMGMxLjI0LDAuMDgsMi40OCwwLjMxLDMuNjQsMC42MmMxLjE2LDAuMzEsMi4yNCwwLjc3LDMuMzMsMS4zMWM1LjM0LDIuNzksOS4wNSw4LjM2LDkuMzYsMTQuN2wwLjA4LDEuMDFoLTEuMDEgbC0xNS4yNC0wLjQ2aC0wLjg1TDQxLjk3LDYzLjE2TDQxLjk3LDYzLjE2TDQxLjk3LDYzLjE2TDQxLjk3LDYzLjE2eiBNNDMuNjcsNDguNzZsMC4xNSwxMy40N2wxMy4zOSwwLjM5IGMtMC41NC01LjI2LTMuNzktOS44My04LjI4LTEyLjIyQzQ4LDQ5LjkzLDQ3LDQ5LjU0LDQ1Ljk5LDQ5LjIzQzQ1LjE0LDQ5LjA3LDQ0LjQ0LDQ4LjkyLDQzLjY3LDQ4Ljc2TDQzLjY3LDQ4Ljc2TDQzLjY3LDQ4Ljc2IEw0My42Nyw0OC43NnogTTM4LjI4LDY1LjgxbDcuNTEsMTNjLTIuMzIsMS4zMi00Ljg3LDIuMDEtNy41MSwyLjAxYy04LjI4LDAtMTUuMDEtNi43My0xNS4wMS0xNS4wMmMwLTguMDUsNi4zNS0xNC43LDE0LjM5LTE1LjAxIEwzOC4yOCw2NS44MUwzOC4yOCw2NS44MUwzOC4yOCw2NS44MUwzOC4yOCw2NS44MXogTTkzLjg5LDgxLjQ1Yy0zLjA5LTMuMDktNy4zNi01LjAxLTEyLjA4LTUuMDFjLTQuNzEsMC04Ljk5LDEuOTItMTIuMDgsNS4wMSBjLTMuMDksMy4wOS01LjAxLDcuMzYtNS4wMSwxMi4wOGMwLDQuNzEsMS45Miw4Ljk5LDUuMDEsMTIuMDhjMy4wOSwzLjA5LDcuMzYsNS4wMSwxMi4wOCw1LjAxYzQuNzEsMCw4Ljk5LTEuOTIsMTIuMDgtNS4wMSBjMy4wOS0zLjA5LDUuMDEtNy4zNyw1LjAxLTEyLjA4Qzk4LjksODguODIsOTYuOTgsODQuNTQsOTMuODksODEuNDVMOTMuODksODEuNDVMOTMuODksODEuNDVMOTMuODksODEuNDV6Ii8+PC9nPjwvc3ZnPg==;imageBackground=none;imageBorder=none;fontColor=#000000;container=0;" vertex="1" parent="1">
          <mxGeometry x="851.3358895705524" y="28.181818181818187" width="144.32727272727274" height="160.36363636363637" as="geometry" />
        </mxCell>
        <mxCell id="Ft_PUwQaNa9xPdg2tMb1-88" value="&lt;span style=&quot;font-size: 20px;&quot;&gt;&lt;b&gt;&lt;font style=&quot;color: rgb(0, 0, 0);&quot;&gt;BI and Reporting&lt;/font&gt;&lt;/b&gt;&lt;/span&gt;" style="text;html=1;whiteSpace=wrap;overflow=hidden;rounded=0;container=0;" vertex="1" parent="1">
          <mxGeometry x="846.59509202454" y="213.74545454545455" width="172.3926380368098" height="38.18181818181819" as="geometry" />
        </mxCell>
        <mxCell id="Ft_PUwQaNa9xPdg2tMb1-33" value="&lt;h1 style=&quot;margin-top: 0px;&quot;&gt;&lt;ul&gt;&lt;li&gt;&lt;span style=&quot;background-color: transparent;&quot;&gt;&lt;font style=&quot;font-size: 20px; color: rgb(0, 0, 0);&quot;&gt;Type:&lt;span style=&quot;font-weight: normal;&quot;&gt; Tables&lt;/span&gt;&lt;/font&gt;&lt;/span&gt;&lt;/li&gt;&lt;li&gt;&lt;font style=&quot;font-size: 20px; color: rgb(0, 0, 0);&quot;&gt;&lt;span style=&quot;background-color: transparent;&quot;&gt;Transformation:&lt;span style=&quot;font-weight: normal;&quot;&gt;&amp;nbsp;&lt;/span&gt;&lt;/span&gt;&lt;span style=&quot;font-weight: normal; background-color: transparent;&quot;&gt;Raw, unprocessed Olist data loaded as-is from CSV files&lt;/span&gt;&lt;/font&gt;&lt;/li&gt;&lt;li&gt;&lt;font style=&quot;font-size: 20px; color: rgb(0, 0, 0);&quot;&gt;&lt;font style=&quot;&quot;&gt;Load:&lt;/font&gt;&lt;font style=&quot;font-weight: normal;&quot;&gt; Full load (truncate &amp;amp; insert)&lt;/font&gt;&lt;/font&gt;&lt;/li&gt;&lt;li&gt;&lt;font style=&quot;font-size: 20px; color: rgb(0, 0, 0);&quot;&gt;&lt;font style=&quot;&quot;&gt;Data Modeling:&lt;/font&gt;&lt;font style=&quot;font-weight: normal;&quot;&gt;&amp;nbsp;&lt;span style=&quot;background-color: transparent;&quot;&gt;Mirror the source structure with PK/FK constraints.&lt;/span&gt;&lt;/font&gt;&lt;/font&gt;&lt;/li&gt;&lt;/ul&gt;&lt;/h1&gt;&lt;p class=&quot;p1&quot;&gt;&lt;span style=&quot;background-color: transparent;&quot;&gt;&lt;font style=&quot;font-size: 25px; color: rgb(0, 0, 0);&quot;&gt;&lt;br&gt;&lt;/font&gt;&lt;/span&gt;&lt;/p&gt;&lt;div&gt;&lt;br&gt;&lt;/div&gt;" style="text;html=1;whiteSpace=wrap;overflow=hidden;rounded=0;container=0;" vertex="1" parent="1">
          <mxGeometry x="-935.3588957055215" y="28.696828752642716" width="439.60122699386505" height="285.9196617336152" as="geometry" />
        </mxCell>
        <mxCell id="Ft_PUwQaNa9xPdg2tMb1-18" value="&lt;font style=&quot;font-size: 40px;&quot;&gt;Bronze Layer&lt;/font&gt;" style="text;html=1;align=center;verticalAlign=middle;whiteSpace=wrap;rounded=0;container=0;" vertex="1" parent="1">
          <mxGeometry x="-922.5843558282209" y="-254.36363636363635" width="379.2638036809816" height="108.64947145877379" as="geometry" />
        </mxCell>
        <mxCell id="Ft_PUwQaNa9xPdg2tMb1-26" value="" style="shape=mxgraph.networks2.icon;aspect=fixed;fillColor=#CD7F32;strokeColor=#FFFFFF;gradientColor=#5B6163;network2IconShadow=1;network2bgFillColor=none;network2Icon=mxgraph.networks2.data_storage;network2IconW=0.8252;network2IconH=0.9989;container=0;" vertex="1" parent="1">
          <mxGeometry x="-807.6042995434441" y="-154.29175475687106" width="132.2721539112051" height="160.11501057082452" as="geometry" />
        </mxCell>
        <mxCell id="Ft_PUwQaNa9xPdg2tMb1-39" value="&lt;h1 style=&quot;margin-top: 0px;&quot;&gt;&lt;ul&gt;&lt;li&gt;&lt;span style=&quot;background-color: transparent;&quot;&gt;&lt;font style=&quot;font-size: 20px; color: rgb(0, 0, 0);&quot;&gt;Type:&lt;span style=&quot;font-weight: normal;&quot;&gt; Tables&lt;/span&gt;&lt;/font&gt;&lt;/span&gt;&lt;/li&gt;&lt;li&gt;&lt;font style=&quot;font-size: 20px; color: rgb(0, 0, 0);&quot;&gt;&lt;span style=&quot;background-color: transparent;&quot;&gt;Transformation:&lt;span style=&quot;font-weight: normal;&quot;&gt;&amp;nbsp;Cleaning, Standardizing, Data Enrichment, Data Normalization,&amp;nbsp;&lt;/span&gt;&lt;/span&gt;&lt;/font&gt;&lt;/li&gt;&lt;li&gt;&lt;font style=&quot;color: rgb(0, 0, 0);&quot;&gt;&lt;font style=&quot;font-size: 20px;&quot;&gt;&lt;font style=&quot;&quot;&gt;Load:&lt;/font&gt;&lt;font style=&quot;font-weight: normal;&quot;&gt;&amp;nbsp;&lt;/font&gt;&lt;/font&gt;&lt;span style=&quot;font-weight: normal;&quot;&gt;&lt;font style=&quot;font-size: 20px;&quot;&gt;Full load (truncate &amp;amp; insert from bronze)&lt;/font&gt;&lt;/span&gt;&lt;/font&gt;&lt;/li&gt;&lt;li&gt;&lt;font style=&quot;font-size: 20px; color: rgb(0, 0, 0);&quot;&gt;&lt;font style=&quot;&quot;&gt;Data Modeling:&lt;/font&gt;&lt;font style=&quot;font-weight: normal;&quot;&gt;&amp;nbsp;&lt;span style=&quot;background-color: transparent;&quot;&gt;Mirror the source structure with PK/FK constraints.&lt;/span&gt;&lt;/font&gt;&lt;/font&gt;&lt;/li&gt;&lt;/ul&gt;&lt;/h1&gt;&lt;p class=&quot;p1&quot;&gt;&lt;span style=&quot;background-color: transparent; color: light-dark(rgb(0, 0, 0), rgb(255, 255, 255));&quot;&gt;&lt;font style=&quot;font-size: 25px;&quot;&gt;&lt;br&gt;&lt;/font&gt;&lt;/span&gt;&lt;/p&gt;&lt;div&gt;&lt;br&gt;&lt;/div&gt;" style="text;html=1;whiteSpace=wrap;overflow=hidden;rounded=0;container=0;" vertex="1" parent="1">
          <mxGeometry x="-400.94171779141107" y="36.33319238900634" width="439.60122699386505" height="285.9196617336152" as="geometry" />
        </mxCell>
        <mxCell id="Ft_PUwQaNa9xPdg2tMb1-40" value="&lt;font style=&quot;font-size: 40px;&quot;&gt;Silver Layer&lt;/font&gt;" style="text;html=1;align=center;verticalAlign=middle;whiteSpace=wrap;rounded=0;container=0;" vertex="1" parent="1">
          <mxGeometry x="-388.1671779141104" y="-246.72727272727272" width="379.2638036809816" height="108.64947145877379" as="geometry" />
        </mxCell>
        <mxCell id="Ft_PUwQaNa9xPdg2tMb1-41" value="" style="shape=mxgraph.networks2.icon;aspect=fixed;fillColor=#C0C0C0;strokeColor=#FFFFFF;gradientColor=#5B6163;network2IconShadow=1;network2bgFillColor=none;network2Icon=mxgraph.networks2.data_storage;network2IconW=0.8252;network2IconH=0.9989;container=0;" vertex="1" parent="1">
          <mxGeometry x="-273.18712162933366" y="-146.65539112050737" width="132.2721539112051" height="160.11501057082452" as="geometry" />
        </mxCell>
        <mxCell id="Ft_PUwQaNa9xPdg2tMb1-44" value="&lt;h1 style=&quot;margin-top: 0px;&quot;&gt;&lt;ul&gt;&lt;li&gt;&lt;span style=&quot;background-color: transparent;&quot;&gt;&lt;font style=&quot;font-size: 20px; color: rgb(0, 0, 0);&quot;&gt;Type:&lt;span style=&quot;font-weight: normal;&quot;&gt;&amp;nbsp;Views &amp;amp; Tables&lt;/span&gt;&lt;/font&gt;&lt;/span&gt;&lt;/li&gt;&lt;li&gt;&lt;font style=&quot;font-size: 20px; color: rgb(0, 0, 0);&quot;&gt;&lt;span style=&quot;background-color: transparent;&quot;&gt;Transformation:&lt;span style=&quot;font-weight: normal;&quot;&gt;&amp;nbsp;Data Integration, Data Aggregations&lt;/span&gt;&lt;/span&gt;&lt;/font&gt;&lt;/li&gt;&lt;li&gt;&lt;font style=&quot;color: rgb(0, 0, 0);&quot;&gt;&lt;font style=&quot;font-size: 20px;&quot;&gt;&lt;font style=&quot;&quot;&gt;Load:&lt;/font&gt;&lt;font style=&quot;font-weight: normal;&quot;&gt;&amp;nbsp;&lt;/font&gt;&lt;/font&gt;&lt;span style=&quot;font-size: 20px; font-weight: 400;&quot;&gt;No dir&lt;span style=&quot;color: rgba(0, 0, 0, 0); font-family: monospace; font-size: 0px; text-wrap-mode: nowrap;&quot;&gt;%3CmxGraphModel%3E%3Croot%3E%3CmxCell%20id%3D%220%22%2F%3E%3CmxCell%20id%3D%221%22%20parent%3D%220%22%2F%3E%3CmxCell%20id%3D%222%22%20value%3D%22%22%20style%3D%22html%3D1%3Bshadow%3D0%3Bdashed%3D0%3Balign%3Dcenter%3BverticalAlign%3Dmiddle%3Bshape%3Dmxgraph.arrows2.arrow%3Bdy%3D0.6%3Bdx%3D40%3Bnotch%3D0%3BfillColor%3D%23666666%3B%22%20vertex%3D%221%22%20parent%3D%221%22%3E%3CmxGeometry%20x%3D%22300%22%20y%3D%2270%22%20width%3D%2280%22%20height%3D%2280%22%20as%3D%22geometry%22%2F%3E%3C%2FmxCell%3E%3C%2Froot%3E%3C%2FmxGraphModel%3E&lt;/span&gt;ect load&lt;/span&gt;&lt;/font&gt;&lt;/li&gt;&lt;li&gt;&lt;font style=&quot;color: rgb(0, 0, 0);&quot;&gt;&lt;font style=&quot;font-size: 20px;&quot;&gt;&lt;font style=&quot;&quot;&gt;Data Modeling:&lt;/font&gt;&lt;font style=&quot;font-weight: normal;&quot;&gt;&amp;nbsp;&lt;/font&gt;&lt;/font&gt;&lt;span style=&quot;font-weight: normal;&quot;&gt;&lt;font style=&quot;font-size: 20px;&quot;&gt;Star schema with facts and dimensions:&amp;nbsp; Fact tables: sales, deliveries, reviews.&amp;nbsp; Dimensions: products, sellers, customers, dates.&lt;/font&gt;&lt;/span&gt;&lt;/font&gt;&lt;/li&gt;&lt;/ul&gt;&lt;/h1&gt;&lt;p class=&quot;p1&quot;&gt;&lt;span style=&quot;background-color: transparent;&quot;&gt;&lt;font style=&quot;font-size: 25px; color: rgb(0, 0, 0);&quot;&gt;&lt;br&gt;&lt;/font&gt;&lt;/span&gt;&lt;/p&gt;&lt;div&gt;&lt;br&gt;&lt;/div&gt;" style="text;html=1;whiteSpace=wrap;overflow=hidden;rounded=0;container=0;" vertex="1" parent="1">
          <mxGeometry x="133.47546012269936" y="36.33319238900634" width="439.60122699386505" height="285.9196617336152" as="geometry" />
        </mxCell>
        <mxCell id="Ft_PUwQaNa9xPdg2tMb1-45" value="&lt;font style=&quot;font-size: 40px;&quot;&gt;Gold Layer&lt;/font&gt;" style="text;html=1;align=center;verticalAlign=middle;whiteSpace=wrap;rounded=0;container=0;" vertex="1" parent="1">
          <mxGeometry x="146.25" y="-246.72727272727272" width="379.2638036809816" height="108.64947145877379" as="geometry" />
        </mxCell>
        <mxCell id="Ft_PUwQaNa9xPdg2tMb1-46" value="" style="shape=mxgraph.networks2.icon;aspect=fixed;fillColor=#FFD700;strokeColor=#FFFFFF;gradientColor=#5B6163;network2IconShadow=1;network2bgFillColor=none;network2Icon=mxgraph.networks2.data_storage;network2IconW=0.8252;network2IconH=0.9989;container=0;" vertex="1" parent="1">
          <mxGeometry x="261.23005628477677" y="-146.65539112050737" width="132.2721539112051" height="160.11501057082452" as="geometry" />
        </mxCell>
      </root>
    </mxGraphModel>
  </diagram>
</mxfile>
